<svg xmlns="http://www.w3.org/2000/svg" viewBox="0 0 76.27 82.77"><defs><style>.cls-1{fill:#eb6225;}</style></defs><g id="Calque_2" data-name="Calque 2"><g id="Calque_1-2" data-name="Calque 1"><path class="cls-1" d="M47.32,0Q60,0,68.1,4.49t8.17,12a16.27,16.27,0,0,1-5.42,12.59Q67.72,31.85,65,31.84a6.63,6.63,0,0,1-4.12-1.11,3.24,3.24,0,0,1-1.43-2.66,3.7,3.7,0,0,1,1.3-2.77C63.57,22.78,65,20.07,65,17.14s-1.77-5.23-5.3-6.93A30.16,30.16,0,0,0,46.54,7.66,34,34,0,0,0,31.63,11q-7,3.39-7.06,8.16t3.14,7.21a58.51,58.51,0,0,0,10.52,5.88l9,4.16L52,38.67l4.25,2q1,.51,3.66,1.89a37.13,37.13,0,0,1,3.46,2c.57.41,1.5,1.05,2.81,1.94a11.44,11.44,0,0,1,2.62,2.22c.43.59,1,1.37,1.83,2.33q2.75,3.33,2.74,9.43,0,10.32-10.59,16.31t-26.27,6q-15.69,0-26.08-5.66T0,60.91a10.46,10.46,0,0,1,2.94-7.37,9.45,9.45,0,0,1,7.19-3.17q4.24,0,4.25,3A11.3,11.3,0,0,1,13.46,57a11.5,11.5,0,0,0-.91,3.93q0,6.66,6.27,10.21t17.85,3.55q11.56,0,17.51-3.66t6-9.49q0-5.82-5.75-9.59a58.28,58.28,0,0,0-5.69-3.17c-1.79-.84-4.2-1.94-7.25-3.27s-5.12-2.27-6.21-2.83-2.73-1.37-4.9-2.44-3.51-1.76-4-2-1.61-.93-3.4-1.89a19.4,19.4,0,0,1-3.4-2.11q-.72-.66-2.61-2.1a9.4,9.4,0,0,1-2.49-2.5c-.39-.7-1-1.74-1.83-3.11S11.37,23,11.37,20.08q0-9.21,10.79-14.64T47.32,0Z"/></g></g></svg>