<svg xmlns="http://www.w3.org/2000/svg" width="38.928" height="25.952" viewBox="0 0 38.928 25.952">
  <path id="newspaper-regular" d="M37.306,64H7.569a3.249,3.249,0,0,0-3.058,2.163H1.622A1.622,1.622,0,0,0,0,67.785V86.167a3.785,3.785,0,0,0,3.785,3.785H37.306a1.622,1.622,0,0,0,1.622-1.622V65.622A1.622,1.622,0,0,0,37.306,64ZM3.244,86.167V69.407H4.325v16.76a.541.541,0,1,1-1.081,0Zm32.44.541H7.53a3.814,3.814,0,0,0,.039-.541V67.244H35.684ZM11.624,78.6h9.191a.811.811,0,0,0,.811-.811V71.3a.811.811,0,0,0-.811-.811H11.624a.811.811,0,0,0-.811.811v6.488A.811.811,0,0,0,11.624,78.6Zm1.892-5.407h5.407v2.7H13.517Zm-2.7,9.462V81.031a.811.811,0,0,1,.811-.811h9.191a.811.811,0,0,1,.811.811v1.622a.811.811,0,0,1-.811.811H11.624A.811.811,0,0,1,10.813,82.653Zm12.976,0V81.031a.811.811,0,0,1,.811-.811h7.029a.811.811,0,0,1,.811.811v1.622a.811.811,0,0,1-.811.811H24.6A.811.811,0,0,1,23.789,82.653Zm0-9.732V71.3a.811.811,0,0,1,.811-.811h7.029a.811.811,0,0,1,.811.811v1.622a.811.811,0,0,1-.811.811H24.6A.811.811,0,0,1,23.789,72.921Zm0,4.866V76.165a.811.811,0,0,1,.811-.811h7.029a.811.811,0,0,1,.811.811v1.622a.811.811,0,0,1-.811.811H24.6A.811.811,0,0,1,23.789,77.787Z" transform="translate(0 -64)"/>
</svg>
